<svg xmlns="http://www.w3.org/2000/svg" viewBox="0 0 2260 1180" font-family="Helvetica Neue, Arial, sans-serif">
<defs><marker id="arrow" viewBox="0 0 10 10" refX="9" refY="5" markerWidth="7" markerHeight="7" orient="auto-start-reverse"><path d="M0,0 L10,5 L0,10 z" fill="#5a5a55"/></marker></defs>
<rect x="0" y="0" width="2260" height="1180" rx="0" fill="#fbfbf9" stroke="#fbfbf9" stroke-width="0"/>
<text x="1130.0" y="48.0" text-anchor="middle" font-family="Helvetica Neue, Arial, sans-serif" font-size="32" font-weight="800" fill="#0e0e0e">
<tspan x="1130.0" dy="0">VeriQ Architecture</tspan>
</text>
<text x="1130.0" y="80.0" text-anchor="middle" font-family="Helvetica Neue, Arial, sans-serif" font-size="15" font-weight="500" fill="#6a6a64">
<tspan x="1130.0" dy="0">React dashboard + FastAPI backend wrapping a Google ADK multi-agent pipeline</tspan>
</text>
<rect x="20" y="500" width="140" height="80" rx="10" fill="#cfe8f3" stroke="#2a78d6" stroke-width="2"/>
<text x="90.0" y="521.5" text-anchor="middle" font-family="Helvetica Neue, Arial, sans-serif" font-size="15" font-weight="700" fill="#0e0e0e">
<tspan x="90.0" dy="0">User</tspan>
</text>
<text x="90.0" y="548.0" text-anchor="middle" font-family="Helvetica Neue, Arial, sans-serif" font-size="11.5" font-weight="500" fill="#2b2b2b">
<tspan x="90.0" dy="0">Browser</tspan>
</text>
<rect x="210" y="420" width="240" height="240" rx="10" fill="#d9f2e6" stroke="#1f9d6b" stroke-width="2"/>
<text x="330.0" y="486.5" text-anchor="middle" font-family="Helvetica Neue, Arial, sans-serif" font-size="15" font-weight="700" fill="#0e0e0e">
<tspan x="330.0" dy="0">React Dashboard</tspan>
</text>
<text x="330.0" y="513.0" text-anchor="middle" font-family="Helvetica Neue, Arial, sans-serif" font-size="11.5" font-weight="500" fill="#2b2b2b">
<tspan x="330.0" dy="0">frontend/</tspan>
<tspan x="330.0" dy="17.5">Charts &amp; Health Cards</tspan>
<tspan x="330.0" dy="17.5">CSV Upload</tspan>
<tspan x="330.0" dy="17.5">Chat Panel</tspan>
<tspan x="330.0" dy="17.5">PDF Download button</tspan>
</text>
<rect x="500" y="420" width="240" height="240" rx="10" fill="#e7ecf5" stroke="#4a5a8a" stroke-width="2"/>
<text x="620.0" y="504.0" text-anchor="middle" font-family="Helvetica Neue, Arial, sans-serif" font-size="15" font-weight="700" fill="#0e0e0e">
<tspan x="620.0" dy="0">FastAPI Backend</tspan>
</text>
<text x="620.0" y="530.5" text-anchor="middle" font-family="Helvetica Neue, Arial, sans-serif" font-size="11.5" font-weight="500" fill="#2b2b2b">
<tspan x="620.0" dy="0">api.py — :8080</tspan>
<tspan x="620.0" dy="17.5">REST + SSE</tspan>
<tspan x="620.0" dy="17.5">CORS-gated</tspan>
</text>
<path d="M 160 540.0 L 210 540.0" stroke="#5a5a55" stroke-width="2" fill="none" marker-end="url(#arrow)"/>
<path d="M 450 540.0 L 500 540.0" stroke="#5a5a55" stroke-width="2" fill="none" marker-end="url(#arrow)"/>
<rect x="800" y="70" width="330" height="160" rx="10" fill="#f1f1ee" stroke="#8a8a86" stroke-width="2"/>
<text x="965.0" y="96.5" text-anchor="middle" font-family="Helvetica Neue, Arial, sans-serif" font-size="15" font-weight="700" fill="#0e0e0e">
<tspan x="965.0" dy="0">Direct data endpoints</tspan>
</text>
<text x="965.0" y="123.0" text-anchor="middle" font-family="Helvetica Neue, Arial, sans-serif" font-size="11.5" font-weight="500" fill="#2b2b2b">
<tspan x="965.0" dy="0">GET /api/metrics</tspan>
<tspan x="965.0" dy="17.5">GET /api/timeseries</tspan>
<tspan x="965.0" dy="17.5">GET /api/anomalies</tspan>
<tspan x="965.0" dy="17.5">GET /api/summary</tspan>
<tspan x="965.0" dy="17.5">POST / DELETE /api/upload</tspan>
</text>
<text x="965.0" y="56" text-anchor="middle" font-family="Helvetica Neue, Arial, sans-serif" font-size="11.5" font-weight="600" fill="#7a7a74">no LLM call</text>
<path d="M 740 540.0 L 770.0 540.0 L 770.0 150.0 L 800 150.0" stroke="#5a5a55" stroke-width="2" fill="none" marker-end="url(#arrow)"/>
<rect x="800" y="470" width="210" height="110" rx="10" fill="#fdf1cf" stroke="#c9962c" stroke-width="2"/>
<text x="905.0" y="498.0" text-anchor="middle" font-family="Helvetica Neue, Arial, sans-serif" font-size="15" font-weight="700" fill="#0e0e0e">
<tspan x="905.0" dy="0">ADK Runner</tspan>
</text>
<text x="905.0" y="524.5" text-anchor="middle" font-family="Helvetica Neue, Arial, sans-serif" font-size="11" font-weight="500" fill="#2b2b2b">
<tspan x="905.0" dy="0">google.adk.runners</tspan>
<tspan x="905.0" dy="17">InMemorySessionService</tspan>
</text>
<path d="M 740 540.0 L 770.0 540.0 L 770.0 525.0 L 800 525.0" stroke="#5a5a55" stroke-width="2" fill="none" marker-end="url(#arrow)"/>
<text x="810.0" y="524.0" text-anchor="middle" font-family="Helvetica Neue, Arial, sans-serif" font-size="11.5" font-weight="600" fill="#7a7a74">POST /api/chat (SSE)</text>
<rect x="1070" y="465" width="210" height="120" rx="10" fill="#2a78d6" stroke="#184e8c" stroke-width="2"/>
<text x="1175.0" y="513.0" text-anchor="middle" font-family="Helvetica Neue, Arial, sans-serif" font-size="16" font-weight="700" fill="#ffffff">
<tspan x="1175.0" dy="0">Root Agent</tspan>
</text>
<text x="1175.0" y="537.0" text-anchor="middle" font-family="Helvetica Neue, Arial, sans-serif" font-size="11.5" font-weight="500" fill="#eaf2fc">
<tspan x="1175.0" dy="0">data_quality_guardian</tspan>
<tspan x="1175.0" dy="16">(coordinator)</tspan>
</text>
<path d="M 1010 525.0 L 1070 525.0" stroke="#5a5a55" stroke-width="2" fill="none" marker-end="url(#arrow)"/>
<rect x="1340" y="270" width="260" height="100" rx="10" fill="#4fc3a1" stroke="#1f8a6b" stroke-width="2"/>
<text x="1470.0" y="294.2" text-anchor="middle" font-family="Helvetica Neue, Arial, sans-serif" font-size="13" font-weight="700" fill="#0e0e0e">
<tspan x="1470.0" dy="0">ingestion_agent</tspan>
</text>
<text x="1470.0" y="319.8" text-anchor="middle" font-family="Helvetica Neue, Arial, sans-serif" font-size="10.5" font-weight="500" fill="#0e0e0e">
<tspan x="1470.0" dy="0">metric catalog</tspan>
<tspan x="1470.0" dy="16.5">&amp; lineage</tspan>
</text>
<path d="M 1280 525.0 L 1310.0 525.0 L 1310.0 320.0 L 1340 320.0" stroke="#5a5a55" stroke-width="2" fill="none" marker-end="url(#arrow)"/>
<rect x="1340" y="390" width="260" height="100" rx="10" fill="#e8944a" stroke="#b5662a" stroke-width="2"/>
<text x="1470.0" y="422.5" text-anchor="middle" font-family="Helvetica Neue, Arial, sans-serif" font-size="13" font-weight="700" fill="#0e0e0e">
<tspan x="1470.0" dy="0">anomaly_detection_agent</tspan>
</text>
<text x="1470.0" y="448.0" text-anchor="middle" font-family="Helvetica Neue, Arial, sans-serif" font-size="10.5" font-weight="500" fill="#0e0e0e">
<tspan x="1470.0" dy="0">rolling z-score</tspan>
</text>
<path d="M 1280 525.0 L 1310.0 525.0 L 1310.0 440.0 L 1340 440.0" stroke="#5a5a55" stroke-width="2" fill="none" marker-end="url(#arrow)"/>
<rect x="1340" y="510" width="260" height="100" rx="10" fill="#7c4fa0" stroke="#583374" stroke-width="2"/>
<text x="1470.0" y="542.5" text-anchor="middle" font-family="Helvetica Neue, Arial, sans-serif" font-size="13" font-weight="700" fill="#0e0e0e">
<tspan x="1470.0" dy="0">root_cause_agent</tspan>
</text>
<text x="1470.0" y="568.0" text-anchor="middle" font-family="Helvetica Neue, Arial, sans-serif" font-size="10.5" font-weight="500" fill="#0e0e0e">
<tspan x="1470.0" dy="0">schema + changelog</tspan>
</text>
<path d="M 1280 525.0 L 1310.0 525.0 L 1310.0 560.0 L 1340 560.0" stroke="#5a5a55" stroke-width="2" fill="none" marker-end="url(#arrow)"/>
<rect x="1340" y="630" width="260" height="100" rx="10" fill="#b83d8f" stroke="#812863" stroke-width="2"/>
<text x="1470.0" y="662.5" text-anchor="middle" font-family="Helvetica Neue, Arial, sans-serif" font-size="13" font-weight="700" fill="#0e0e0e">
<tspan x="1470.0" dy="0">incident_report_agent</tspan>
</text>
<text x="1470.0" y="688.0" text-anchor="middle" font-family="Helvetica Neue, Arial, sans-serif" font-size="10.5" font-weight="500" fill="#0e0e0e">
<tspan x="1470.0" dy="0">markdown summary</tspan>
</text>
<path d="M 1280 525.0 L 1310.0 525.0 L 1310.0 680.0 L 1340 680.0" stroke="#5a5a55" stroke-width="2" fill="none" marker-end="url(#arrow)"/>
<rect x="800" y="960" width="330" height="150" rx="10" fill="#e3e3e0" stroke="#5a5f6b" stroke-width="2"/>
<text x="965.0" y="999.0" text-anchor="middle" font-family="Helvetica Neue, Arial, sans-serif" font-size="15" font-weight="700" fill="#0e0e0e">
<tspan x="965.0" dy="0">report.py</tspan>
</text>
<text x="965.0" y="1025.5" text-anchor="middle" font-family="Helvetica Neue, Arial, sans-serif" font-size="11.5" font-weight="500" fill="#2b2b2b">
<tspan x="965.0" dy="0">GET /api/report/pdf</tspan>
<tspan x="965.0" dy="17.5">matplotlib + fpdf2 charts</tspan>
<tspan x="965.0" dy="17.5">per-metric anomaly tables</tspan>
</text>
<text x="965.0" y="946" text-anchor="middle" font-family="Helvetica Neue, Arial, sans-serif" font-size="11.5" font-weight="600" fill="#7a7a74">deterministic — no LLM</text>
<path d="M 740 540.0 L 770.0 540.0 L 770.0 1035.0 L 800 1035.0" stroke="#5a5a55" stroke-width="2" fill="none" marker-end="url(#arrow)"/>
<rect x="1660" y="320" width="220" height="440" rx="10" fill="#ececeb" stroke="#8a8a86" stroke-width="2"/>
<text x="1770.0" y="494.5" text-anchor="middle" font-family="Helvetica Neue, Arial, sans-serif" font-size="15" font-weight="700" fill="#0e0e0e">
<tspan x="1770.0" dy="0">Tools Layer</tspan>
</text>
<text x="1770.0" y="521.0" text-anchor="middle" font-family="Helvetica Neue, Arial, sans-serif" font-size="12" font-weight="500" fill="#2b2b2b">
<tspan x="1770.0" dy="0">tools/</tspan>
<tspan x="1770.0" dy="18">metrics_tools.py</tspan>
<tspan x="1770.0" dy="18">schema_tools.py</tspan>
<tspan x="1770.0" dy="18">data_manager.py</tspan>
</text>
<path d="M 1130 150.0 L 1395.0 150.0 L 1395.0 370 L 1660 370" stroke="#5a5a55" stroke-width="2" fill="none" marker-end="url(#arrow)"/>
<path d="M 1600 320.0 L 1630.0 320.0 L 1630.0 540.0 L 1660 540.0" stroke="#5a5a55" stroke-width="2" fill="none" marker-end="url(#arrow)"/>
<path d="M 1600 440.0 L 1630.0 440.0 L 1630.0 540.0 L 1660 540.0" stroke="#5a5a55" stroke-width="2" fill="none" marker-end="url(#arrow)"/>
<path d="M 1600 560.0 L 1630.0 560.0 L 1630.0 540.0 L 1660 540.0" stroke="#5a5a55" stroke-width="2" fill="none" marker-end="url(#arrow)"/>
<path d="M 1600 680.0 L 1630.0 680.0 L 1630.0 540.0 L 1660 540.0" stroke="#5a5a55" stroke-width="2" fill="none" marker-end="url(#arrow)"/>
<path d="M 1130 1035.0 L 1395.0 1035.0 L 1395.0 710 L 1660 710" stroke="#5a5a55" stroke-width="2" fill="none" marker-end="url(#arrow)"/>
<rect x="1970" y="350" width="250" height="160" rx="10" fill="#f6d97a" stroke="#c9a227" stroke-width="2"/>
<text x="2095.0" y="386.0" text-anchor="middle" font-family="Helvetica Neue, Arial, sans-serif" font-size="15" font-weight="700" fill="#0e0e0e">
<tspan x="2095.0" dy="0">Bundled sample</tspan>
</text>
<text x="2095.0" y="412.5" text-anchor="middle" font-family="Helvetica Neue, Arial, sans-serif" font-size="11" font-weight="500" fill="#2b2b2b">
<tspan x="2095.0" dy="0">data/</tspan>
<tspan x="2095.0" dy="17">metrics_sample.csv</tspan>
<tspan x="2095.0" dy="17">schema_sample.json</tspan>
<tspan x="2095.0" dy="17">changelog_sample.json</tspan>
</text>
<rect x="1970" y="570" width="250" height="160" rx="10" fill="#f6d97a" stroke="#c9a227" stroke-width="2"/>
<text x="2095.0" y="614.5" text-anchor="middle" font-family="Helvetica Neue, Arial, sans-serif" font-size="15" font-weight="700" fill="#0e0e0e">
<tspan x="2095.0" dy="0">Uploaded CSV</tspan>
</text>
<text x="2095.0" y="641.0" text-anchor="middle" font-family="Helvetica Neue, Arial, sans-serif" font-size="11" font-weight="500" fill="#2b2b2b">
<tspan x="2095.0" dy="0">POST /api/upload</tspan>
<tspan x="2095.0" dy="17">temp file, 10MB cap</tspan>
<tspan x="2095.0" dy="17">schema auto-inferred</tspan>
</text>
<text x="1956" y="546.0" text-anchor="middle" font-family="Helvetica Neue, Arial, sans-serif" font-size="13" font-weight="600" fill="#8a8a84">OR</text>
<path d="M 1880 474.0 L 1970 430.0" stroke="#5a5a55" stroke-width="2" fill="none" marker-end="url(#arrow)"/>
<path d="M 1880 606.0 L 1970 650.0" stroke="#5a5a55" stroke-width="2" fill="none" marker-end="url(#arrow)"/>
<text x="1950" y="306" text-anchor="middle" font-family="Helvetica Neue, Arial, sans-serif" font-size="11" font-weight="600" fill="#8a8a84">active source switch</text>
<rect x="60" y="1120" width="22" height="22" rx="4" fill="#e7ecf5" stroke="#4a5a8a" stroke-width="2"/>
<text x="90" y="1136" text-anchor="start" font-family="Helvetica Neue, Arial, sans-serif" font-size="12.5" font-weight="500" fill="#3a3a36">Web layer</text>
<rect x="194.39999999999998" y="1120" width="22" height="22" rx="4" fill="#2a78d6" stroke="#184e8c" stroke-width="2"/>
<text x="224.39999999999998" y="1136" text-anchor="start" font-family="Helvetica Neue, Arial, sans-serif" font-size="12.5" font-weight="500" fill="#3a3a36">Root agent</text>
<rect x="336.4" y="1120" width="22" height="22" rx="4" fill="#4fc3a1" stroke="#1f8a6b" stroke-width="2"/>
<text x="366.4" y="1136" text-anchor="start" font-family="Helvetica Neue, Arial, sans-serif" font-size="12.5" font-weight="500" fill="#3a3a36">Sub-agents</text>
<rect x="478.4" y="1120" width="22" height="22" rx="4" fill="#e3e3e0" stroke="#5a5f6b" stroke-width="2"/>
<text x="508.4" y="1136" text-anchor="start" font-family="Helvetica Neue, Arial, sans-serif" font-size="12.5" font-weight="500" fill="#3a3a36">Deterministic (no LLM)</text>
<rect x="711.5999999999999" y="1120" width="22" height="22" rx="4" fill="#f6d97a" stroke="#c9a227" stroke-width="2"/>
<text x="741.5999999999999" y="1136" text-anchor="start" font-family="Helvetica Neue, Arial, sans-serif" font-size="12.5" font-weight="500" fill="#3a3a36">Data</text>
</svg>